<svg xmlns="http://www.w3.org/2000/svg" xmlns:xlink="http://www.w3.org/1999/xlink" viewBox="0 0 266.36 266.36"><defs><style>.cls-1,.cls-31,.cls-45{fill:none;}.cls-2,.cls-3,.cls-33,.cls-44{fill:#0072bc;}.cls-3{stroke:#c4c5c6;}.cls-3,.cls-4{stroke-miterlimit:10;}.cls-4{stroke:#fff;fill:url(#radial-gradient);}.cls-5{fill:url(#linear-gradient);}.cls-6{fill:url(#linear-gradient-2);}.cls-7{fill:url(#linear-gradient-3);}.cls-8{fill:url(#linear-gradient-4);}.cls-9{fill:url(#linear-gradient-5);}.cls-10{fill:url(#linear-gradient-6);}.cls-11{fill:url(#linear-gradient-7);}.cls-12{fill:url(#linear-gradient-8);}.cls-13{fill:#c4c5c6;}.cls-14{fill:url(#radial-gradient-2);}.cls-15{fill:url(#linear-gradient-9);}.cls-16{fill:url(#linear-gradient-10);}.cls-17{fill:url(#linear-gradient-11);}.cls-18{fill:url(#linear-gradient-12);}.cls-19{fill:url(#linear-gradient-13);}.cls-20{fill:url(#linear-gradient-14);}.cls-21{fill:url(#linear-gradient-15);}.cls-22{fill:url(#linear-gradient-16);}.cls-23{font-size:22px;font-family:LibreFranklin-SemiBold, Libre Franklin;font-weight:600;}.cls-23,.cls-25,.cls-27,.cls-28,.cls-29,.cls-32,.cls-38,.cls-43{fill:#fff;}.cls-24{letter-spacing:-0.03em;}.cls-25,.cls-31,.cls-32,.cls-33,.cls-43,.cls-44,.cls-45{stroke:#00376d;stroke-linejoin:round;}.cls-25,.cls-31,.cls-32,.cls-33,.cls-43,.cls-44{stroke-linecap:round;}.cls-25{stroke-width:1.1px;}.cls-26{fill:#00376d;}.cls-27{font-size:11px;}.cls-27,.cls-28,.cls-29{font-family:LibreFranklin-Medium, Libre Franklin;font-weight:500;}.cls-28{font-size:11.03px;}.cls-29{font-size:10.94px;}.cls-30{clip-path:url(#clip-path);}.cls-31,.cls-32,.cls-33,.cls-45{stroke-width:1.1px;}.cls-34{clip-path:url(#clip-path-2);}.cls-35{clip-path:url(#clip-path-3);}.cls-36{clip-path:url(#clip-path-4);}.cls-37{clip-path:url(#clip-path-5);}.cls-39{clip-path:url(#clip-path-6);}.cls-40{clip-path:url(#clip-path-7);}.cls-41{clip-path:url(#clip-path-8);}.cls-42{clip-path:url(#clip-path-9);}.cls-43,.cls-44{stroke-width:1.1px;}</style><radialGradient id="radial-gradient" cx="133.07" cy="133.93" r="111.72" gradientUnits="userSpaceOnUse"><stop offset="0" stop-color="#eff7ff"/><stop offset="0.15" stop-color="#e9f5ff"/><stop offset="0.37" stop-color="#d7eeff"/><stop offset="0.61" stop-color="#bae3ff"/><stop offset="0.88" stop-color="#92d3ff"/><stop offset="0.98" stop-color="#81cdff"/></radialGradient><linearGradient id="linear-gradient" x1="140.7" y1="-216.59" x2="145.03" y2="-22.28" gradientTransform="translate(288.1 63.5) rotate(180)" gradientUnits="userSpaceOnUse"><stop offset="0.02" stop-color="#c4c5c6"/><stop offset="0.09" stop-color="#c4c5c6"/><stop offset="1" stop-color="#c4c5c6"/><stop offset="1" stop-color="#c3c4c5"/><stop offset="1" stop-color="#a8a9ab"/><stop offset="1" stop-color="#929396"/><stop offset="1" stop-color="#818285"/><stop offset="1" stop-color="#767779"/><stop offset="1" stop-color="#6f7073"/><stop offset="1" stop-color="#6d6e71"/></linearGradient><linearGradient id="linear-gradient-2" x1="139.2" y1="-6.79" x2="143.53" y2="187.51" gradientTransform="translate(-51.73 142.95) rotate(-45)" xlink:href="#linear-gradient"/><linearGradient id="linear-gradient-3" x1="147.62" y1="-3.18" x2="151.95" y2="191.13" gradientTransform="translate(137.66 -64.5) rotate(45)" xlink:href="#linear-gradient"/><linearGradient id="linear-gradient-4" x1="142.12" y1="-12.24" x2="146.45" y2="182.07" gradientTransform="translate(155.71 332.34) rotate(-135)" xlink:href="#linear-gradient"/><linearGradient id="linear-gradient-5" x1="147.86" y1="-9.68" x2="152.2" y2="184.63" gradientTransform="translate(345.1 124.89) rotate(135)" xlink:href="#linear-gradient"/><linearGradient id="linear-gradient-6" x1="140.69" y1="-9.96" x2="140.69" y2="184.29" gradientTransform="translate(12.72 279.2) rotate(-90)" xlink:href="#linear-gradient"/><linearGradient id="linear-gradient-7" x1="148.45" y1="-7.1" x2="152.78" y2="187.21" gradientTransform="translate(279.2 -12.72) rotate(90)" xlink:href="#linear-gradient"/><linearGradient id="linear-gradient-8" x1="141.97" y1="-3.3" x2="146.31" y2="191.01" gradientTransform="matrix(1, 0, 0, 1, 0, 0)" xlink:href="#linear-gradient"/><radialGradient id="radial-gradient-2" cx="133.14" cy="133.19" r="58.02" gradientUnits="userSpaceOnUse"><stop offset="0" stop-color="#a8cfe8"/><stop offset="0.19" stop-color="#7fb8dd"/><stop offset="0.46" stop-color="#499acf"/><stop offset="0.7" stop-color="#2184c5"/><stop offset="0.88" stop-color="#0977be"/><stop offset="1" stop-color="#0072bc"/></radialGradient><linearGradient id="linear-gradient-9" x1="104.71" y1="126.26" x2="105.13" y2="143.31" gradientTransform="matrix(0.64, 0.01, -0.01, 0.81, 4.01, 21.49)" gradientUnits="userSpaceOnUse"><stop offset="0.02" stop-color="#eff7ff"/><stop offset="0.19" stop-color="#e2e8ee"/><stop offset="0.48" stop-color="#d1d5d8"/><stop offset="0.75" stop-color="#c7c9cb"/><stop offset="1" stop-color="#c4c5c6"/></linearGradient><linearGradient id="linear-gradient-10" x1="139.59" y1="147.35" x2="140.01" y2="164.4" gradientTransform="matrix(0.45, -0.45, 0.58, 0.57, -66.01, 150.63)" xlink:href="#linear-gradient-9"/><linearGradient id="linear-gradient-11" x1="169.13" y1="167.18" x2="169.55" y2="184.23" gradientTransform="matrix(-0.02, -0.64, 0.81, -0.03, -8.97, 309.18)" xlink:href="#linear-gradient-9"/><linearGradient id="linear-gradient-12" x1="193.73" y1="143.29" x2="194.16" y2="160.35" gradientTransform="matrix(-0.45, -0.45, 0.57, -0.58, 178.37, 354.31)" xlink:href="#linear-gradient-9"/><linearGradient id="linear-gradient-13" x1="262.6" y1="115.03" x2="263.02" y2="132.09" gradientTransform="matrix(-0.62, 0, 0, -0.81, 359.47, 236.56)" xlink:href="#linear-gradient-9"/><linearGradient id="linear-gradient-14" x1="267.38" y1="55.06" x2="267.8" y2="72.11" gradientTransform="matrix(-0.44, 0.44, -0.58, -0.57, 333.89, 10.69)" xlink:href="#linear-gradient-9"/><linearGradient id="linear-gradient-15" x1="135.64" y1="70.64" x2="136.07" y2="87.69" gradientTransform="matrix(0.45, 0.45, -0.57, 0.58, 74.57, -18.93)" xlink:href="#linear-gradient-9"/><linearGradient id="linear-gradient-16" x1="201.61" y1="45.88" x2="202.04" y2="62.94" gradientTransform="matrix(0.01, 0.62, -0.81, 0.03, 176.34, -56.34)" xlink:href="#linear-gradient-9"/><clipPath id="clip-path" transform="translate(-11.56 -5.13)"><rect class="cls-1" x="89.75" y="39.45" width="36" height="36"/></clipPath><clipPath id="clip-path-2" transform="translate(-11.56 -5.13)"><rect class="cls-1" x="161.05" y="38.96" width="36" height="36"/></clipPath><clipPath id="clip-path-3" transform="translate(-11.56 -5.13)"><rect class="cls-1" x="212.89" y="92.19" width="36" height="36"/></clipPath><clipPath id="clip-path-4" transform="translate(-11.56 -5.13)"><rect class="cls-1" x="209.83" y="152.96" width="36" height="36"/></clipPath><clipPath id="clip-path-5" transform="translate(-11.56 -5.13)"><rect class="cls-1" x="160.81" y="203" width="36" height="36"/></clipPath><clipPath id="clip-path-6" transform="translate(-11.56 -5.13)"><rect class="cls-1" x="90.34" y="201.98" width="36" height="36"/></clipPath><clipPath id="clip-path-7" transform="translate(-11.56 -5.13)"><rect class="cls-1" x="103.25" y="214.15" width="10.79" height="10.72"/></clipPath><clipPath id="clip-path-8" transform="translate(-11.56 -5.13)"><rect class="cls-1" x="44.38" y="153.98" width="36" height="36"/></clipPath><clipPath id="clip-path-9" transform="translate(-11.56 -5.13)"><rect class="cls-1" x="41.06" y="85.3" width="42.64" height="42.64"/></clipPath></defs><g id="Layer_2" data-name="Layer 2"><g id="Layer_3" data-name="Layer 3"><path class="cls-2" d="M101.5,215.08a8.32,8.32,0,0,0,3.65-1.27l3.92-2.09c1.15-.61.14-2.23-1-1.71a42.27,42.27,0,0,0-6.25,3.28l1.46,1.12c.06-.26.09-.28.34-.33l-1.12-1.46c-.28.52-1,.72-1.37,1.22a3,3,0,0,0-.46,2,11.23,11.23,0,0,0,1.19,4.69,1,1,0,0,0,1.85-.5q0-1.26.12-2.52c0-.37-.07-1.72.3-1.89l-1.46-.6c.49,2.38.58,4.77,2.2,6.72a1,1,0,0,0,1.7-.7l-.29-3.5-.14-1.66a8.76,8.76,0,0,1-.17-1.67l-.7.69.08,0-1-.26s.11.87.12,1c.06.41.09.82.13,1.22.09.79.2,1.57.34,2.34a25.41,25.41,0,0,0,1.43,4.82,1,1,0,0,0,2-.27,22.74,22.74,0,0,0-.56-5.5c-.27-1.84.13-3.69-.23-5.51l-1.66,1a3.27,3.27,0,0,1,.39,1.1c.12.42.21.85.29,1.29a27,27,0,0,1,.33,2.83,26,26,0,0,0,.83,5.41c.26.86,1.75,1,1.91,0a29,29,0,0,0,.52-6.36,18.81,18.81,0,0,0-1.37-6l-.26,1c.35-.35.82-1,1.27-1.22l-.76.1c-.18-.16-.18-.15,0,0s.26.22.39.31a3.31,3.31,0,0,0,.66.31c.61.21,1.26.29,1.88.47.9.27,3.14.78,3.18,2a9,9,0,0,1-.44,1.95,10.2,10.2,0,0,1-.55,1.94,26.85,26.85,0,0,0-1.49,3.75,1,1,0,0,0,1.82.77c1.4-1.83.21-3.92.64-5.93l-1.82.24a2.85,2.85,0,0,1,.34,1.72l2-.27a9.7,9.7,0,0,1-.29-4.35,1,1,0,0,0-.69-1.23c-.91-.21-1.6-.89-2.57-1a3.39,3.39,0,0,1-1.34-.16,9.59,9.59,0,0,0-1.39-.61,1,1,0,0,0-.76,1.82c.86.55,2.85,1.72,2.4,3.06l.46-.59-.14.07.76-.1c.24.2.25.12,0-.24a3.59,3.59,0,0,1-.12-.47q0-.5-.42.18c.12-.06.19,0,.21,0l-.46-.59a3.72,3.72,0,0,1,0,1l-.1,1.46-.17,2.77,2-.26a1.4,1.4,0,0,1,0-.73H111l.56,2.68a1,1,0,0,0,1.91,0,11.84,11.84,0,0,0,.31-2.36,9,9,0,0,1,.08-2.43l-1.22.69-.23-.13,1.4-1.4a13.14,13.14,0,0,0-3.65-2.85c-.69-.36-1.81.26-1.46,1.12a13.58,13.58,0,0,1,1.07,4.09,40.35,40.35,0,0,0,.37,4.26l1.92-.52a7,7,0,0,1-.13-.9c0-.11,0-.23,0-.34s0-.22,0,.07l-.86.49.17,0-.7-.29c.28.25.07,1.21,0,1.54a3.77,3.77,0,0,1-.74,1.45l1.81.24a11.3,11.3,0,0,1-.56-2.38,1,1,0,0,0-2-.26c-.78,1.91-.4,4.07-1.2,6-.46,1.1,1.22,1.62,1.81.77l1.8-2.58.86-1.22a5.37,5.37,0,0,1,.94-1.34l-1.36-.35c.09-.16.06-.13-.08.11l-.43.53-.75.94-1.61,2a1,1,0,0,0,1.4,1.4,33.33,33.33,0,0,0,3.93-4,1,1,0,0,0-1-1.66,31.89,31.89,0,0,0-3.29.87c-.76.22-2.44.83-3,0-.31-.46-.47-1.06-.74-1.55s-.61-1-.94-1.46c-.56-.81-1.25-1.76-2.37-1.58a1.71,1.71,0,0,0-1.36,1.86,5.65,5.65,0,0,0,1.33,2.85c.6.87,1.06,1.82,1.66,2.69a15.32,15.32,0,0,0,2.46,2.63c.81.73,2.17-.2,1.56-1.2a14.3,14.3,0,0,1-1.08-2.14l-1.46,1.12,1.88.92c.68.33,1.83-.25,1.46-1.12l-.42-1c-.49-1.16-2.41-.65-1.92.53l.43,1,1.45-1.12-1.88-.91c-.68-.34-1.8.24-1.45,1.12a17.52,17.52,0,0,0,1.28,2.61l1.55-1.2a13.75,13.75,0,0,1-2.15-2.23c-.52-.76-.91-1.59-1.42-2.35-.23-.35-.49-.68-.72-1a6.44,6.44,0,0,1-.42-.72c0-.1-.08-.35-.16-.43s0-.22-.21,0c-.23,0-.27.14-.11.24s.34.46.45.62a15.74,15.74,0,0,1,.84,1.34A8.44,8.44,0,0,0,105.9,225a3,3,0,0,0,2.26.65c2-.1,3.78-1,5.71-1.32l-1-1.66a33.33,33.33,0,0,1-3.92,4.05l1.4,1.4,2.58-3.21c.65-.82,1.3-1.76.61-2.78a1,1,0,0,0-1.36-.36,10.52,10.52,0,0,0-2.13,2.72l-2.18,3.13,1.81.76c.81-1.91.42-4.06,1.2-6l-2-.26a13.75,13.75,0,0,0,.64,2.91,1,1,0,0,0,1.81.24c1-1.25,1.68-3.61.75-5.07a1.22,1.22,0,0,0-2-.22c-.58.72-.24,2-.09,2.8.24,1.26,2.14.72,1.92-.52-.26-1.45-.2-2.92-.36-4.37a14.78,14.78,0,0,0-1.09-4l-1.46,1.12a11.31,11.31,0,0,1,3.26,2.53c.87,1,2.2-.43,1.4-1.4a1,1,0,0,0-.64-.38,1,1,0,0,0-1.23.69c-.44,1.55,0,3.2-.38,4.79h1.91l-.55-2.68a1,1,0,0,0-1.92,0,3.87,3.87,0,0,0,0,1.79,1,1,0,0,0,1.95-.27l.23-3.58c0-.79.36-2-.23-2.61a2.05,2.05,0,0,0-2.26-.27c-.82.45-.8,1.35-.64,2.15s.54,1.88,1.46,2.07,1.51-.74,1.48-1.61c-.08-2.11-1.81-3.42-3.43-4.46l-.77,1.82c1,.27,1.66.88,2.76.84.93,0,1.65.67,2.54.89l-.69-1.22a11.93,11.93,0,0,0,.29,5.41,1,1,0,0,0,2-.26,4.87,4.87,0,0,0-.61-2.72,1,1,0,0,0-1.82.23,9.8,9.8,0,0,0,0,3,3.12,3.12,0,0,1-.44,2.44l1.82.77c.44-1.84,1.55-3.42,2-5.27.36-1.67,1.17-3.58-.28-5-1.25-1.19-3.3-1.73-4.93-2.1a2.15,2.15,0,0,1-1-.41,1.53,1.53,0,0,0-1-.44c-.89,0-1.62,1.11-2.17,1.67a1,1,0,0,0-.26,1,16.93,16.93,0,0,1,1.31,5.43,27.15,27.15,0,0,1-.45,5.83h1.91a30.94,30.94,0,0,1-.86-6.07,23.44,23.44,0,0,0-.44-2.89,5.46,5.46,0,0,0-1-2.54,1,1,0,0,0-1.66,1c.34,1.69-.05,3.47.19,5.19a21.46,21.46,0,0,1,.53,5.29l1.95-.26a24.66,24.66,0,0,1-1.66-6.32c-.11-1,0-4.77-1.91-4.13a1,1,0,0,0-.7.69,16.16,16.16,0,0,0,.22,3.53l.31,3.83,1.7-.7c-1.32-1.59-1.3-3.92-1.69-5.84a1,1,0,0,0-1.46-.6,2.5,2.5,0,0,0-1.17,2.27c-.13,1.28-.2,2.57-.24,3.86l1.85-.51a8.85,8.85,0,0,1-.92-3.68c0-.53,0-.8.44-1.12a3.49,3.49,0,0,0,1.13-1.1,1,1,0,0,0-1.12-1.46,2.2,2.2,0,0,0-1.73,1.71c-.18.79.69,1.63,1.45,1.12a44.81,44.81,0,0,1,6.25-3.28l-1-1.71-3.34,1.78a7.92,7.92,0,0,1-3.23,1.31c-1.27,0-1.28,2,0,2Z" transform="translate(-11.56 -5.13)"/></g></g><g id="Layer_1" data-name="Layer 1"><circle class="cls-3" cx="133.18" cy="133.18" r="132.68"/><circle class="cls-4" cx="133.07" cy="133.93" r="111.72"/><path class="cls-5" d="M142.62,133.65h4.25c.85,0,6.12,4.46,1.54,2.28s0,132.21,0,132.21c0,1.25-.69,2.27-1.54,2.27a9.08,9.08,0,0,1-2.14.26,9.36,9.36,0,0,1-2.11-.26,1.25,1.25,0,0,1-1.09-.67,2.87,2.87,0,0,1-.45-1.6s4.65-128.15,0-132.21S141.77,133.65,142.62,133.65Z" transform="translate(-11.56 -5.13)"/><path class="cls-6" d="M148.82,139.88l-3,3c-.6.6-7.48,1.18-2.7-.52S49.64,48.88,49.64,48.88c-.89-.89-1.12-2.1-.52-2.7a8.75,8.75,0,0,1,1.33-1.69,8.51,8.51,0,0,1,1.67-1.31,1.22,1.22,0,0,1,1.24-.3,2.79,2.79,0,0,1,1.45.82s87.33,93.89,93.49,93.48S149.42,139.28,148.82,139.88Z" transform="translate(-11.56 -5.13)"/><path class="cls-7" d="M144.13,144.56l-3-3c-.6-.6-1.18-7.48.52-2.69s93.48-93.49,93.48-93.49c.89-.89,2.1-1.12,2.7-.52a9,9,0,0,1,3,3,1.22,1.22,0,0,1,.3,1.24,2.82,2.82,0,0,1-.82,1.46s-93.9,87.33-93.48,93.49S144.73,145.17,144.13,144.56Z" transform="translate(-11.56 -5.13)"/><path class="cls-8" d="M146.73,133.57l3,3c.6.61,1.18,7.49-.52,2.7s-93.48,93.49-93.48,93.49c-.89.88-2.1,1.12-2.7.52a9.24,9.24,0,0,1-1.69-1.34A8.6,8.6,0,0,1,50,230.27a1.23,1.23,0,0,1-.3-1.24,2.79,2.79,0,0,1,.82-1.45s93.9-87.33,93.48-93.49S146.13,133,146.73,133.57Z" transform="translate(-11.56 -5.13)"/><path class="cls-9" d="M140.47,136.13l3-3c.6-.6,7.48-1.18,2.69.52s93.49,93.48,93.49,93.48c.89.89,1.12,2.1.52,2.7a8.75,8.75,0,0,1-1.33,1.69,9.24,9.24,0,0,1-1.67,1.31,1.24,1.24,0,0,1-1.24.3,2.85,2.85,0,0,1-1.46-.82s-87.33-93.9-93.49-93.48S139.86,136.73,140.47,136.13Z" transform="translate(-11.56 -5.13)"/><path class="cls-10" d="M149.25,136.4v4.24c0,.85-4.46,6.13-2.28,1.54s-132.21,0-132.21,0c-1.25,0-2.27-.69-2.27-1.54a9.08,9.08,0,0,1-.26-2.14,8.8,8.8,0,0,1,.26-2.1,1.23,1.23,0,0,1,.67-1.09,2.85,2.85,0,0,1,1.6-.45s128.15,4.64,132.21,0S149.25,135.55,149.25,136.4Z" transform="translate(-11.56 -5.13)"/><path class="cls-11" d="M139.86,140.51v-4.25c0-.85,4.46-6.12,2.27-1.54s132.21,0,132.21,0c1.26,0,2.28.69,2.28,1.54a9.11,9.11,0,0,1,.25,2.14,9.39,9.39,0,0,1-.25,2.11,1.25,1.25,0,0,1-.67,1.09,2.88,2.88,0,0,1-1.61.45s-128.14-4.65-132.21,0S139.86,141.36,139.86,140.51Z" transform="translate(-11.56 -5.13)"/><path class="cls-12" d="M146.76,143.14h-4.25c-.85,0-6.12-4.46-1.54-2.27S141,8.66,141,8.66c0-1.26.69-2.28,1.54-2.28a8.61,8.61,0,0,1,2.14-.25,8.85,8.85,0,0,1,2.11.25,1.25,1.25,0,0,1,1.09.67,3,3,0,0,1,.45,1.61s-4.65,128.14,0,132.21S147.61,143.14,146.76,143.14Z" transform="translate(-11.56 -5.13)"/><circle class="cls-13" cx="133.01" cy="133.34" r="66.89"/><circle class="cls-14" cx="133.14" cy="133.19" r="58.02"/><polygon class="cls-15" points="75.04 135.9 70.59 135.92 66.13 135.95 68.33 131.04 70.53 126.13 72.78 131.01 75.04 135.9"/><polygon class="cls-16" points="93.59 175.66 90.51 178.87 87.43 182.08 85.44 177.09 83.44 172.09 88.52 173.87 93.59 175.66"/><polygon class="cls-17" points="134.81 191.16 135.02 195.61 135.23 200.06 130.23 198.06 125.24 196.06 130.03 193.61 134.81 191.16"/><polygon class="cls-18" points="175.93 172.5 179.15 175.57 182.37 178.64 177.38 180.65 172.4 182.66 174.16 177.58 175.93 172.5"/><polygon class="cls-19" points="191.1 131.47 195.42 131.4 199.74 131.32 197.66 136.26 195.59 141.19 193.34 136.33 191.1 131.47"/><polygon class="cls-20" points="174.26 92.08 177.22 88.97 180.19 85.87 182.24 90.81 184.3 95.74 179.28 93.91 174.26 92.08"/><polygon class="cls-21" points="90.6 93.76 87.43 90.7 84.26 87.64 89.25 85.65 94.23 83.65 92.42 88.7 90.6 93.76"/><polygon class="cls-22" points="131.45 75.16 131.26 70.85 131.07 66.53 136.06 68.47 141.04 70.41 136.25 72.79 131.45 75.16"/><text class="cls-23" transform="translate(90.12 139.92)">Fl<tspan class="cls-24" x="19.32" y="0">e</tspan><tspan x="31.48" y="0">xOps</tspan></text><line class="cls-25" x1="36.89" y1="179.8" x2="64.49" y2="179.8"/><line class="cls-25" x1="215.38" y1="160.4" x2="222.32" y2="160.4"/><line class="cls-25" x1="215.38" y1="165.7" x2="222.32" y2="165.7"/><line class="cls-25" x1="215.38" y1="170.99" x2="222.32" y2="170.99"/><line class="cls-25" x1="215.38" y1="162.13" x2="220.41" y2="162.13"/><line class="cls-25" x1="215.38" y1="167.43" x2="220.41" y2="167.43"/><line class="cls-25" x1="215.38" y1="172.72" x2="220.41" y2="172.72"/><path class="cls-26" d="M102.32,208.78a.58.58,0,0,0,.41-.17.54.54,0,0,0,.17-.4.58.58,0,0,0-.58-.58.54.54,0,0,0-.4.17.58.58,0,0,0-.17.41.58.58,0,0,0,.57.57Z" transform="translate(-11.56 -5.13)"/><text class="cls-27" transform="matrix(0.93, -0.55, 0.51, 0.86, 70.28, 34.94)">D</text><text class="cls-27" transform="translate(77.7 30.59) rotate(-26.67) scale(1.08 1)">e</text><text class="cls-27" transform="matrix(1, -0.43, 0.4, 0.92, 83.8, 27.53)">s</text><text class="cls-27" transform="translate(89.41 25.13) rotate(-21.16) scale(1.08 1)">i</text><text class="cls-27" transform="translate(92.06 24.06) rotate(-18.62) scale(1.08 1)">g</text><text class="cls-27" transform="matrix(1.05, -0.28, 0.26, 0.97, 98.83, 21.77)">n</text><text class="cls-27" transform="translate(161.17 256.69) rotate(-16.85) scale(1.12 1)">D</text><text class="cls-27" transform="translate(170.13 253.94) rotate(-20.56) scale(1.12 1)">e</text><text class="cls-27" transform="matrix(1.03, -0.46, 0.41, 0.91, 177.15, 251.3)">p</text><text class="cls-27" transform="translate(184.09 248.17) rotate(-26.34) scale(1.12 1)">l</text><text class="cls-27" transform="translate(187.06 246.74) rotate(-28.77) scale(1.12 1)">o</text><text class="cls-27" transform="translate(193.53 243.18) rotate(-31.92) scale(1.12 1)">y</text><text class="cls-27" transform="translate(158.52 20.12) rotate(14.75) scale(1.07 1)">D</text><text class="cls-27" transform="translate(166.69 22.3) rotate(18.67) scale(1.07 1)">e</text><text class="cls-27" transform="translate(172.87 24.38) rotate(21.95) scale(1.07 1)">v</text><text class="cls-27" transform="translate(178.5 26.63) rotate(25.17) scale(1.07 1)">e</text><text class="cls-27" transform="matrix(0.95, 0.5, -0.46, 0.89, 184.61, 29.54)">l</text><text class="cls-27" transform="translate(187.12 30.81) rotate(30.16) scale(1.07 1)">o</text><text class="cls-27" transform="translate(193.11 34.28) rotate(33.73) scale(1.07 1)">p</text><text class="cls-27" transform="translate(235.64 78.48) rotate(63.55) scale(1.07 1)">T</text><text class="cls-27" transform="translate(238.58 84.41) rotate(66.22) scale(1.07 1)">r</text><text class="cls-27" transform="translate(240.39 88.46) rotate(69.02) scale(1.07 1)">a</text><text class="cls-27" transform="translate(242.67 94.39) rotate(72.35) scale(1.07 1)">c</text><text class="cls-27" transform="translate(244.58 100.38) rotate(75.76) scale(1.07 1)">k</text><text class="cls-27" transform="translate(245.28 192.67) rotate(-65.42) scale(1.05 1)">T</text><text class="cls-27" transform="translate(248.06 186.62) rotate(-68.64) scale(1.05 1)">e</text><text class="cls-27" transform="matrix(0.32, -1, 0.95, 0.31, 250.62, 180.03)">s</text><text class="cls-27" transform="translate(252.47 174.24) rotate(-74.91) scale(1.05 1)">t</text><text class="cls-28" transform="translate(62.04 237.06) rotate(34.81) scale(1.07 1)">E</text><text class="cls-28" transform="matrix(0.92, 0.55, -0.51, 0.86, 68.48, 241.51)">n</text><text class="cls-28" transform="translate(74.52 245.1) rotate(28.01) scale(1.07 1)">f</text><text class="cls-28" transform="matrix(0.97, 0.45, -0.42, 0.91, 78.55, 247.27)">o</text><text class="cls-28" transform="matrix(0.99, 0.4, -0.37, 0.93, 85.19, 250.33)">r</text><text class="cls-28" transform="matrix(1.01, 0.35, -0.33, 0.95, 89.6, 252.13)">c</text><text class="cls-28" transform="translate(95.9 254.3) rotate(15.53) scale(1.07 1)">e</text><text class="cls-29" transform="translate(9.12 157.34) rotate(78.07) scale(1.12 1)">M</text><text class="cls-29" transform="translate(11.67 168.77) rotate(72.91) scale(1.12 1)">a</text><text class="cls-29" transform="matrix(0.4, 1.04, -0.93, 0.36, 13.75, 175.55)">n</text><text class="cls-29" transform="translate(16.49 182.61) rotate(65.01) scale(1.12 1)">a</text><text class="cls-29" transform="translate(19.49 189.04) rotate(61.06) scale(1.12 1)">g</text><text class="cls-29" transform="matrix(0.61, 0.94, -0.84, 0.54, 23.15, 195.64)">e</text><text class="cls-27" transform="translate(18.69 110.29) rotate(-79.24) scale(1.08 1)">A</text><text class="cls-27" transform="matrix(0.28, -1.05, 0.97, 0.26, 20.34, 101.76)">n</text><text class="cls-27" transform="translate(22.11 95.11) rotate(-71.52) scale(1.08 1)">a</text><text class="cls-27" transform="translate(24.21 88.95) rotate(-69.02) scale(1.08 1)">l</text><text class="cls-27" transform="translate(25.2 86.26) rotate(-66.57) scale(1.08 1)">y</text><text class="cls-27" transform="matrix(0.49, -0.97, 0.89, 0.45, 27.72, 80.45)">z</text><text class="cls-27" transform="translate(30.2 75.45) rotate(-60.15) scale(1.08 1)">e</text><g class="cls-30"><polyline class="cls-31" points="101.65 40.7 86.4 40.7 86.4 63.17"/><path class="cls-31" d="M110.75,43.86H95.53V66.34" transform="translate(-11.56 -5.13)"/><path class="cls-32" d="M100.39,69.75a.86.86,0,0,0,.84.85h17.71a.85.85,0,0,0,.81-.85v-19H100.39Z" transform="translate(-11.56 -5.13)"/><rect class="cls-33" x="88.83" y="43.16" width="19.4" height="2.41"/><path class="cls-33" d="M115.85,59.45a5.34,5.34,0,0,0-1-2.36l.86-.86-1.33-1.33-.86.86a5.34,5.34,0,0,0-2.36-1V53.57h-1.85v1.22a5.53,5.53,0,0,0-2.37,1l-.86-.86-1.33,1.31.87.86a5.58,5.58,0,0,0-1,2.36h-1.2v1.88h1.22a5.69,5.69,0,0,0,1,2.36l-.87.86,1.33,1.33L107,65a5.78,5.78,0,0,0,2.37,1v1.22h1.88V66a5.58,5.58,0,0,0,2.36-1l.86.86,1.32-1.3-.86-.86a5.44,5.44,0,0,0,1-2.36h1.22V59.45Zm-5.6,4.14a3.2,3.2,0,1,1,3.21-3.2v.06a3.21,3.21,0,0,1-3.2,3.15Z" transform="translate(-11.56 -5.13)"/><path class="cls-31" d="M110.25,57.2a3.2,3.2,0,1,0,3.2,3.25,3.2,3.2,0,0,0-3.2-3.25Z" transform="translate(-11.56 -5.13)"/><polygon class="cls-26" points="105.13 43.93 104.27 43.93 104.27 44.8 105.13 44.8 105.13 43.93 105.13 43.93"/><polygon class="cls-26" points="106.29 43.93 105.42 43.93 105.42 44.8 106.29 44.8 106.29 43.93 106.29 43.93"/><polygon class="cls-26" points="107.44 43.93 106.58 43.93 106.58 44.8 107.44 44.8 107.44 43.93 107.44 43.93"/></g><g class="cls-34"><path class="cls-32" d="M181.5,66.72l-.43.45H176.3l-.43-.45H162.32v.45a1.31,1.31,0,0,0,1.28,1.35h30.7a1.33,1.33,0,0,0,1.29-1.35v-.45Z" transform="translate(-11.56 -5.13)"/><rect class="cls-33" x="157.83" y="39.83" width="18.98" height="2.35"/><path class="cls-32" d="M166.91,50.53h2.48V48.75h-2.51a2.06,2.06,0,0,0-2.06,2.06h0V66.6h1.6V51a.49.49,0,0,1,.49-.49Z" transform="translate(-11.56 -5.13)"/><path class="cls-32" d="M193.05,50.81a2.06,2.06,0,0,0-2-2.06h-2.68v1.78h2.48a.49.49,0,0,1,.49.49V66.6h1.71Z" transform="translate(-11.56 -5.13)"/><path class="cls-33" d="M190.85,50.53h-2.48V64.06h-19V50.53h-2.46a.49.49,0,0,0-.49.49V66.6h24.92V51a.49.49,0,0,0-.49-.49Z" transform="translate(-11.56 -5.13)"/><polygon class="cls-32" points="157.83 58.93 176.8 58.93 176.8 45.4 176.8 43.62 176.8 42.18 157.83 42.18 157.83 43.62 157.83 45.4 157.83 58.93"/><polygon class="cls-26" points="173.84 40.6 173.03 40.6 173.03 41.41 173.84 41.41 173.84 40.6 173.84 40.6"/><polygon class="cls-26" points="174.93 40.6 174.12 40.6 174.12 41.41 174.93 41.41 174.93 40.6 174.93 40.6"/><polygon class="cls-26" points="176.01 40.6 175.2 40.6 175.2 41.41 176.01 41.41 176.01 40.6 176.01 40.6"/><path class="cls-31" d="M183.9,55.29A5.43,5.43,0,0,0,183,53.1l.8-.8-1.23-1.23-.8.8a5.3,5.3,0,0,0-2.19-.91V49.83h-1.74V51a5.3,5.3,0,0,0-2.19.91l-.8-.8-1.23,1.23.8.8a5.17,5.17,0,0,0-.91,2.19h-1.13V57h1.13a5.17,5.17,0,0,0,.91,2.19l-.8.8,1.23,1.23.8-.8a5.17,5.17,0,0,0,2.19.91v1.13h1.74V61.36a5.17,5.17,0,0,0,2.19-.91l.8.8L183.79,60l-.8-.8A5.43,5.43,0,0,0,183.9,57h1.15V55.29Zm-5.2,3.84a3,3,0,1,1,3-3,3,3,0,0,1-3,3Z" transform="translate(-11.56 -5.13)"/><path class="cls-33" d="M178.7,53.19a3,3,0,1,0,3,3A3,3,0,0,0,178.7,53.19Zm0,4.2a1.2,1.2,0,1,1,1.2-1.2h0a1.2,1.2,0,0,1-1.21,1.19h0Z" transform="translate(-11.56 -5.13)"/><path class="cls-31" d="M178.68,55a1.2,1.2,0,1,0,1.2,1.2,1.2,1.2,0,0,0-1.2-1.2Z" transform="translate(-11.56 -5.13)"/></g><g class="cls-35"><path class="cls-32" d="M228.53,120.32a4.47,4.47,0,1,1-5.22-3.57,4.47,4.47,0,0,1,5.22,3.57Z" transform="translate(-11.56 -5.13)"/><path class="cls-32" d="M242.19,112.55A4.47,4.47,0,1,1,237,109a4.47,4.47,0,0,1,5.22,3.58Z" transform="translate(-11.56 -5.13)"/><line class="cls-31" x1="207.76" y1="89.19" x2="209.46" y2="91.97"/><line class="cls-31" x1="211.94" y1="111.09" x2="211.48" y2="101.52"/><path class="cls-33" d="M228.18,100.77A4.47,4.47,0,1,1,223,97.19a4.47,4.47,0,0,1,5.22,3.58Z" transform="translate(-11.56 -5.13)"/><line class="cls-31" x1="222.28" y1="105.72" x2="215.96" y2="100.2"/></g><g class="cls-36"><path class="cls-33" d="M238.33,187.4a1.07,1.07,0,0,0,1.07-1.07h0v-5.15l-6.13,6.23Z" transform="translate(-11.56 -5.13)"/><path class="cls-32" d="M238.33,157.69h-5.94v2.06H231V159h-6.3v.74H223v-2.06h-5.91a1.06,1.06,0,0,0-1.06,1.08h0v27.54a1.06,1.06,0,0,0,1,1.08h16.16l6.13-6.23V158.78a1.07,1.07,0,0,0-1.07-1.09Z" transform="translate(-11.56 -5.13)"/><polygon class="cls-33" points="213.1 154.61 213.1 153.87 219.39 153.87 219.39 154.61 220.83 154.61 220.83 152.56 220.83 150.94 211.48 150.94 211.48 152.56 211.48 154.61 213.1 154.61"/><polygon class="cls-32" points="213.1 153.87 213.1 154.61 213.1 155.43 219.39 155.43 219.39 154.61 219.39 153.87 213.1 153.87"/><rect class="cls-32" x="212.26" y="148.94" width="7.69" height="2"/><path class="cls-33" d="M234.33,181.17h5.07l-6.13,6.23v-5.14a1.07,1.07,0,0,1,1-1.09Z" transform="translate(-11.56 -5.13)"/><rect class="cls-33" x="209.69" y="159.23" width="3.04" height="3.09"/><rect class="cls-33" x="209.69" y="165.06" width="3.04" height="3.09"/><rect class="cls-33" x="209.69" y="170.9" width="3.04" height="3.09"/></g><g class="cls-37"><path class="cls-32" d="M193.39,209.45a4.1,4.1,0,0,0-.7-1.7l.62-.61-.95-1-.62.62a4.1,4.1,0,0,0-1.7-.7v-.84h-1.35v.88a4,4,0,0,0-1.69.7l-.62-.62-.95,1,.62.61a4.12,4.12,0,0,0-.71,1.7h-.87v1.31h.87a3.9,3.9,0,0,0,.71,1.69l-.62.62.95,1,.62-.61a4.14,4.14,0,0,0,1.69.7v.8H190v-.87a4.1,4.1,0,0,0,1.7-.7l.62.61.95-1-.62-.62a4,4,0,0,0,.7-1.69h.88v-1.28Zm-4,3a2.3,2.3,0,1,1,2.3-2.3h0a2.3,2.3,0,0,1-2.32,2.27Z" transform="translate(-11.56 -5.13)"/><path class="cls-32" d="M189.37,207.83a2.3,2.3,0,1,0,2.3,2.3h0a2.3,2.3,0,0,0-2.29-2.29Z" transform="translate(-11.56 -5.13)"/><path class="cls-33" d="M189.37,224.25v-2h-1.65a11.55,11.55,0,0,0-1-3.82l1.43-.83-1-1.77-1.43.83a11.63,11.63,0,0,0-2.8-2.8l.83-1.43-1.77-1-.88,1.37a11.49,11.49,0,0,0-3.81-1v-1.68h-2v1.66a11.43,11.43,0,0,0-3.81,1l-.83-1.41-1.79,1,.83,1.44a11.55,11.55,0,0,0-2.79,2.79l-1.44-.83-1,1.77,1.4.83a11.55,11.55,0,0,0-1,3.82h-1.65v2h1.65a11.55,11.55,0,0,0,1,3.82l-1.44.83,1,1.77,1.44-.83a11.59,11.59,0,0,0,2.79,2.8l-.79,1.47,1.78,1,.82-1.43a11.48,11.48,0,0,0,3.82,1v1.64h2.05v-1.59a11.43,11.43,0,0,0,3.81-1l.83,1.43,1.77-1-.82-1.43a11.59,11.59,0,0,0,2.79-2.8l1.43.83,1-1.77-1.43-.83a11.55,11.55,0,0,0,1-3.82Zm-13.11,8.23a9.25,9.25,0,1,1,9.25-9.25,9.25,9.25,0,0,1-9.25,9.25Z" transform="translate(-11.56 -5.13)"/><circle class="cls-38" cx="164.68" cy="218.06" r="8.78"/></g><g class="cls-39"><path class="cls-26" d="M103.34,207.73a.58.58,0,0,0,.76.29l4.11-1.8,11.34,5V215a20.56,20.56,0,0,1-11.31,18.28A20.58,20.58,0,0,1,96.9,214.92v-3.73l3.15-1.38a.59.59,0,0,0,.3-.76.58.58,0,0,0-.76-.29l-3.5,1.53a.57.57,0,0,0-.34.52v4.11A21.6,21.6,0,0,0,108,234.38a.55.55,0,0,0,.5,0,21.55,21.55,0,0,0,12.24-19.46v-4.11a.56.56,0,0,0-.34-.52l-11.9-5.21H108l-4.32,1.9a.58.58,0,0,0-.3.76Z" transform="translate(-11.56 -5.13)"/><path class="cls-26" d="M99.66,213l8.58-3.75,8.59,3.75v1.93a17.75,17.75,0,0,1-8.59,15.17,17.76,17.76,0,0,1-8.58-15.16Zm-1.15-.37v2.3A18.94,18.94,0,0,0,108,231.24a.66.66,0,0,0,.58,0A18.94,18.94,0,0,0,118,214.91v-2.3a.57.57,0,0,0-.34-.53l-9.16-4a.61.61,0,0,0-.46,0l-9.16,4A.57.57,0,0,0,98.51,212.61Z" transform="translate(-11.56 -5.13)"/><path class="cls-26" d="M101.91,209a.6.6,0,0,0,.43-1,.59.59,0,0,0-.4-.16.62.62,0,0,0-.41.16.57.57,0,0,0,0,.82.62.62,0,0,0,.41.16Z" transform="translate(-11.56 -5.13)"/></g><path class="cls-2" d="M100.62,213.64l7.63-3.38,7.64,3.38v1.73A16,16,0,0,1,108.25,229a16,16,0,0,1-7.63-13.6Zm-1-.34v2.07A17,17,0,0,0,108,230a.52.52,0,0,0,.51,0,17,17,0,0,0,8.4-14.65v-2a.52.52,0,0,0-.3-.47l-8.15-3.6a.49.49,0,0,0-.41,0l-8.15,3.6a.52.52,0,0,0-.3.47Z" transform="translate(-11.56 -5.13)"/><path class="cls-2" d="M102.34,215.88l3.26-1.44,1.78-.79.74-.32.32-.15c-.16,0-.15.06,0,.09a21.73,21.73,0,0,1,2.65,1.2c.5.21,1,.42,1.51.58a5.81,5.81,0,0,1,1.26.3l-.52-.54.09.21-.2-.75a5.14,5.14,0,0,1-.37,1.64l.69-.9c-.8.54-.8,1.18-1,2a14.31,14.31,0,0,1-.61,2.22,1.52,1.52,0,0,0,2.27,1.75c1.58-.94,1.87-2.67,1.77-4.38a1.5,1.5,0,0,0-3,0,6.73,6.73,0,0,1-.92,2.78,12.09,12.09,0,0,0-1.36,2.8,1.52,1.52,0,0,0,1,1.85,2.44,2.44,0,0,0,2.64-1.05,9.43,9.43,0,0,0,1-2.73c.38-1.39-1.5-2.62-2.51-1.46a27.44,27.44,0,0,0-2,3,30.84,30.84,0,0,0-2,2.59,1.54,1.54,0,0,0,.59,2.08,1.69,1.69,0,0,0,.31.13c1.87.42,2.9-1.6,3.89-2.85L111.2,222a33.71,33.71,0,0,1-4.1,4.9l2.35.3a16.26,16.26,0,0,1-2.75-5.75,27.22,27.22,0,0,1-.67-3.23c-.08-.57-.47-2.1.12-2.52l-2.05-.54a6.37,6.37,0,0,1,0,1.07c0,.49,0,1,0,1.46a17.4,17.4,0,0,0,2.8,8.43,1.52,1.52,0,0,0,2.14,0,1.54,1.54,0,0,0,.42-1,51.21,51.21,0,0,0-1.12-5.88c-.31-1.35-1.1-3.42-.22-4.69H105.5a10.17,10.17,0,0,1,.5,2.25l.5,2.58a10.72,10.72,0,0,0,1.44,4.43c.82,1.12,2.84.85,2.8-.76s-.3-3.27-.49-4.89a18.48,18.48,0,0,0-.91-4.54l-2.2,1.69,2.42,1.17a5.15,5.15,0,0,0,1.29.63l.17.08-.22-.76-.34.57a12,12,0,0,0-1.22,4.87h3a19.9,19.9,0,0,0-.5-4c-.29-1.24-.64-2.6-2-2.95a9.56,9.56,0,0,0-2-.11H105.8l-4.2-.08a1.52,1.52,0,0,0-1.5,1.54,1.49,1.49,0,0,0,.05.36,26.46,26.46,0,0,0,2.08,5.43c.83,1.61,2.09,3,2.57,4.76l2.74-1.16a27.49,27.49,0,0,1-3.5-6.71,1.5,1.5,0,0,0-2.89.8,10.7,10.7,0,0,0,1.29,3.76,1.5,1.5,0,0,0,2.59-1.52,8.44,8.44,0,0,1-1-3l-2.89.8a30.43,30.43,0,0,0,3.8,7.42,1.5,1.5,0,0,0,2.74-1.15,8.6,8.6,0,0,0-1.06-2.52c-.54-.81-1.08-1.61-1.54-2.46a22.2,22.2,0,0,1-2.06-5.26l-1.45,1.9,6.31.13a5.34,5.34,0,0,0,.8,0H109l-.46-.36a10.78,10.78,0,0,0,.4,1.48,15.4,15.4,0,0,1,.32,3,1.5,1.5,0,0,0,3,0,10,10,0,0,1,.57-2.86c.37-.93,1.1-1.65.94-2.73s-1-1.6-2-2.05l-3.14-1.52c-1-.51-2.71.36-2.2,1.69a16.49,16.49,0,0,1,.79,4c.18,1.52.42,3,.46,4.59l2.79-.76c-.88-1.21-1-2.88-1.26-4.31a22.29,22.29,0,0,0-1.13-4.91c-.5-1.12-2-.83-2.59,0-1.19,1.71-.75,3.89-.35,5.78.44,2.1,1,4.16,1.28,6.29L109,224a7.58,7.58,0,0,1-.94-2.14,17.94,17.94,0,0,1-.8-2.68c-.38-1.81.23-3.84-.56-5.54a1.5,1.5,0,0,0-2-.53c-2.59,1.88-1.7,5.39-1.1,8.07a19.28,19.28,0,0,0,3.32,7.54,1.54,1.54,0,0,0,2.11.5,2.43,2.43,0,0,0,.25-.2,37,37,0,0,0,4.57-5.51c.86-1.41-1.28-3.18-2.35-1.82l-.94,1.19-.37.47s-.55.57-.26.47h.6l.87,2.18a23.46,23.46,0,0,1,1.84-2.37A30.45,30.45,0,0,1,114.9,221l-2.51-1.46c-.11.39-.21.78-.32,1.17,0,.18-.1.35-.16.53s.08.27.63-.07l1,1.83a15.82,15.82,0,0,1,1.44-2.77,10.06,10.06,0,0,0,1-3.61h-3c0,.49.22,1.49-.29,1.79l2.2,1.69a15.47,15.47,0,0,0,.82-3.67L115,217.7a3.09,3.09,0,0,0,1.12-2.25,2.4,2.4,0,0,0-.53-2.55c-.62-.55-1.51-.52-2.26-.76a20.86,20.86,0,0,1-2.16-1,10.47,10.47,0,0,0-2.22-.91,4.32,4.32,0,0,0-2.75.71l-5.34,2.36a1.51,1.51,0,0,0-.49,2A1.53,1.53,0,0,0,102.34,215.88Z" transform="translate(-11.56 -5.13)"/><g class="cls-40"><path class="cls-38" d="M112.93,215.91l-5.75,5.41-2.77-2.81-1,.9,3.68,3.75,1-.89,5.74-5.42Z" transform="translate(-11.56 -5.13)"/></g><g class="cls-41"><rect class="cls-33" x="44.61" y="167.93" width="4.58" height="12"/><rect class="cls-32" x="36.92" y="175.07" width="4.58" height="4.86"/><rect class="cls-32" x="52.31" y="171.36" width="4.58" height="8.57"/><rect class="cls-33" x="59.93" y="163.7" width="4.58" height="16.23"/><path class="cls-32" d="M52.38,173.08a1.47,1.47,0,1,1-1.48-1.46h0A1.46,1.46,0,0,1,52.38,173.08Z" transform="translate(-11.56 -5.13)"/><path class="cls-33" d="M59.07,166a2.29,2.29,0,1,1,1.61-2.82A2.29,2.29,0,0,1,59.07,166Z" transform="translate(-11.56 -5.13)"/><path class="cls-32" d="M66.54,170.14a1.46,1.46,0,1,1,1-1.81v0A1.45,1.45,0,0,1,66.54,170.14Z" transform="translate(-11.56 -5.13)"/><path class="cls-33" d="M74.38,163A2.29,2.29,0,1,1,76,160.17,2.29,2.29,0,0,1,74.38,163Z" transform="translate(-11.56 -5.13)"/><line class="cls-31" x1="40.33" y1="166.83" x2="45.53" y2="160.46"/><path class="cls-33" d="M64.86,168.07s-4.58-2.91-4.58-2.91" transform="translate(-11.56 -5.13)"/><line class="cls-31" x1="55.7" y1="162.64" x2="60.65" y2="157.4"/></g><g class="cls-42"><path class="cls-32" d="M70.59,95.89a9.47,9.47,0,1,1-11.77-6.41h0A9.47,9.47,0,0,1,70.59,95.89Z" transform="translate(-11.56 -5.13)"/><rect class="cls-43" x="63.39" y="107.63" width="2.25" height="2.43" transform="translate(-39.72 17.57) rotate(-16.43)"/><rect class="cls-43" x="67.55" y="121.85" width="2.25" height="2.14" transform="translate(-43.53 19.32) rotate(-16.43)"/><rect class="cls-44" x="64.43" y="109.75" width="4.37" height="12.4" transform="translate(-41.64 18.45) rotate(-16.43)"/><line class="cls-45" x1="54" y1="107.25" x2="56.31" y2="115.1"/></g></g></svg>